<svg viewBox="0 0 512.00003 512" ><path d="m494.933594 332.792969h-154.0625c-.628906-6.628907-1.925782-13.179688-3.871094-19.546875-1.371094-4.511719-6.140625-7.054688-10.652344-5.683594-4.507812 1.371094-7.054687 6.136719-5.683594 10.648438 1.417969 4.761718 2.394532 9.644531 2.929688 14.582031h-23.84375c-1.03125-9.902344-3.480469-19.605469-7.277344-28.808594-1.84375-4.246094-6.742187-6.25-11.035156-4.507813-4.292969 1.738282-6.414062 6.582032-4.777344 10.917969 2.949219 7.171875 4.9375 14.703125 5.902344 22.398438h-77.761719c-9.425781 0-17.066406 7.640625-17.066406 17.066406h-26.8125c-3.878906-15.023437-17.40625-25.539063-32.921875-25.597656h-93.867188c-18.851562 0-34.132812 15.28125-34.132812 34.132812 0 18.851563 15.28125 34.132813 34.132812 34.132813h93.867188c15.515625-.058594 29.042969-10.574219 32.921875-25.601563h26.8125v34.136719c.070313 61.234375 49.695313 110.859375 110.933594 110.933594h102.398437c61.238282-.074219 110.863282-49.699219 110.933594-110.933594v-51.203125c0-9.425781-7.640625-17.066406-17.066406-17.066406zm-366.933594 42.667969h-93.867188c-9.425781 0-17.066406-7.640626-17.066406-17.066407s7.640625-17.066406 17.066406-17.066406h93.867188c9.425781 0 17.066406 7.640625 17.066406 17.066406s-7.640625 17.066407-17.066406 17.066407zm366.933594 25.601562c-.0625 51.8125-42.050782 93.804688-93.867188 93.863281h-102.398437c-51.816407-.058593-93.808594-42.050781-93.867188-93.863281v-51.203125h290.132813zm0 0"/><path d="m238.933594 401.0625v-17.066406c0-4.714844-3.820313-8.535156-8.535156-8.535156-4.710938 0-8.53125 3.820312-8.53125 8.535156v17.066406c-.035157 23.3125 10.5625 45.367188 28.789062 59.902344 2.378906 1.910156 5.59375 2.402344 8.4375 1.296875 2.839844-1.105469 4.878906-3.640625 5.339844-6.65625.464844-3.011719-.714844-6.042969-3.089844-7.953125-14.183594-11.300782-22.433594-28.457032-22.410156-46.589844zm0 0"/><path d="m298.667969 460.792969c-2.5 0-4.996094-.15625-7.476563-.460938-3.0625-.457031-6.132812.78125-8.019531 3.238281-1.890625 2.453126-2.300781 5.738282-1.074219 8.582032 1.226563 2.84375 3.894532 4.800781 6.976563 5.109375 3.183593.402343 6.386719.601562 9.59375.597656 4.710937 0 8.53125-3.820313 8.53125-8.53125 0-4.714844-3.820313-8.535156-8.53125-8.535156zm0 0"/><path d="m231.464844 131.195312c-.632813-11.285156-5.71875-21.851562-14.136719-29.390624l-6.339844-5.683594-99.953125-89.589844c-5.058594-4.53125-11.710937-6.867188-18.492187-6.4921875-6.78125.3749995-13.132813 3.4296875-17.664063 8.4882815l-68.332031 76.238281c-9.433594 10.53125-8.542969 26.710937 1.988281 36.144531l99.933594 89.601563 6.347656 5.691406c13.640625 12.21875 33.554688 14.375 49.492188 5.351563 3.125-1.917969 7.097656-1.765626 10.070312.382812l37.496094 25.019531c7.074219 5.214844 16.957031 4.171875 22.792969-2.398437l23.890625-26.632813c5.816406-6.394531 5.871094-16.148437.128906-22.613281l-29.398438-35.164062c-2.292968-2.699219-2.78125-6.5-1.246093-9.695313 2.585937-6.078125 3.753906-12.664063 3.421875-19.257813zm-95.195313 35.472657-6.347656-5.691407c-2.265625-2.082031-5.472656-2.785156-8.398437-1.84375-2.925782.945313-5.117188 3.390626-5.738282 6.402344-.621094 3.011719.425782 6.125 2.742188 8.148438l6.347656 5.691406-11.382812 12.703125-68.164063-61.089844 79.738281-88.96875 68.164063 61.101563zm-119.203125-64.359375c-.132812-2.257813.648438-4.476563 2.167969-6.152344l68.351563-76.261719c3.144531-3.507812 8.539062-3.804687 12.050781-.65625l12.714843 11.390625-79.738281 88.960938-12.703125-11.382813c-1.695312-1.511719-2.71875-3.632812-2.84375-5.898437zm228.769532 104.234375-24.15625 26.453125-37.496094-25.019532c-4.339844-3.136718-9.5625-4.8125-14.917969-4.785156-4.683594.003906-9.285156 1.230469-13.351563 3.546875-9.570312 5.421875-21.527343 4.125-29.714843-3.214843l17.066406-19.0625 62.652344-69.890626c5.035156 4.519532 8.085937 10.84375 8.480469 17.597657.191406 3.972656-.515626 7.941406-2.070313 11.605469-4.128906 9.226562-2.539063 20.007812 4.078125 27.648437zm0 0"/><path d="m87.167969 122.652344c-3.527344-2.980469-8.785157-2.617188-11.863281.824218-3.082032 3.4375-2.867188 8.703126.480468 11.882813l17.332032 15.539063c3.53125 2.769531 8.605468 2.328124 11.609374-1.011719 3-3.339844 2.902344-8.433594-.226562-11.652344zm0 0"/><path d="m250.308594 256.632812c-3.503906 3.144532-3.804688 8.53125-.664063 12.042969 2.796875 3.140625 5.792969 6.699219 8.789063 10.632813 1.851562 2.421875 4.855468 3.675781 7.878906 3.28125 3.027344-.390625 5.613281-2.367188 6.785156-5.183594s.753906-6.042969-1.097656-8.46875c-3.03125-3.957031-6.273438-7.875-9.644531-11.636719-3.140625-3.511719-8.535157-3.808593-12.046875-.667969zm0 0"/><path d="m305.691406 286.355469c2.628906 3.910156 7.929688 4.949219 11.84375 2.320312 3.910156-2.628906 4.949219-7.929687 2.320313-11.84375-10.535157-15.328125-22.890625-29.324219-36.796875-41.675781-3.496094-3.164062-8.894532-2.890625-12.058594.605469-3.160156 3.496093-2.890625 8.894531.609375 12.058593 12.878906 11.414063 24.324219 24.355469 34.082031 38.535157zm0 0"/><path d="m472.695312 3.355469-119.464843 119.46875c-3.332031 3.332031-3.332031 8.734375 0 12.066406 36.433593 35.644531 94.769531 35.324219 130.8125-.71875s36.363281-94.378906.71875-130.816406c-3.332031-3.3320315-8.734375-3.3320315-12.066407 0zm-29.867187 89.601562c-10.84375 10.769531-27.578125 12.886719-40.761719 5.160157l45.933594-45.925782c7.722656 13.1875 5.601562 29.925782-5.171875 40.765625zm29.867187 29.867188c-27.34375 27.273437-70.789062 29.722656-101.027343 5.691406l18.066406-18.074219c20.128906 14.351563 47.679687 12.058594 65.160156-5.421875 17.476563-17.480469 19.769531-45.03125 5.417969-65.15625l18.082031-18.074219c24.082031 30.222657 21.628907 73.710938-5.699219 101.035157zm0 0"/><path d="m392.535156 213.328125c4.710938 0 8.53125-3.820313 8.53125-8.535156v-17.066407c0-4.710937-3.820312-8.53125-8.53125-8.53125-4.714844 0-8.535156 3.820313-8.535156 8.53125v17.066407c0 4.714843 3.820312 8.535156 8.535156 8.535156zm0 0"/><path d="m384 307.195312c0 4.710938 3.820312 8.53125 8.535156 8.53125 4.710938 0 8.53125-3.820312 8.53125-8.53125v-68.269531c0-4.710937-3.820312-8.53125-8.53125-8.53125-4.714844 0-8.535156 3.820313-8.535156 8.53125zm0 0"/><path d="m435.199219 204.792969c4.714843 0 8.535156-3.820313 8.535156-8.53125v-8.535157c0-4.710937-3.820313-8.53125-8.535156-8.53125-4.710938 0-8.53125 3.820313-8.53125 8.53125v8.535157c0 4.710937 3.820312 8.53125 8.53125 8.53125zm0 0"/><path d="m426.667969 307.195312c0 4.710938 3.820312 8.53125 8.53125 8.53125 4.714843 0 8.535156-3.820312 8.535156-8.53125v-76.800781c0-4.714843-3.820313-8.535156-8.535156-8.535156-4.710938 0-8.53125 3.820313-8.53125 8.535156zm0 0"/><path d="m477.867188 204.792969c4.710937 0 8.53125-3.820313 8.53125-8.53125v-17.066407c0-4.714843-3.820313-8.535156-8.53125-8.535156-4.714844 0-8.535157 3.820313-8.535157 8.535156v17.066407c0 4.710937 3.820313 8.53125 8.535157 8.53125zm0 0"/><path d="m469.332031 307.195312c0 4.710938 3.820313 8.53125 8.535157 8.53125 4.710937 0 8.53125-3.820312 8.53125-8.53125v-76.800781c0-4.714843-3.820313-8.535156-8.53125-8.535156-4.714844 0-8.535157 3.820313-8.535157 8.535156zm0 0"/></svg>