<svg
  version="1.0"
  width="50px"
  height="50px"
  viewBox="0 0 2360.000000 2079.000000"
  preserveAspectRatio="xMidYMid meet"
>
            <g
    transform="translate(0.000000,2079.000000) scale(0.100000,-0.100000)"
    fill="white"
    stroke="none"
  >
            <path
      d="M15885 20209 c-44 -5 -136 -20 -205 -34 -910 -191 -1505 -954 -1431
            -1836 18 -221 79 -475 189 -799 127 -369 285 -718 578 -1270 116 -219 187
            -372 234 -505 80 -224 215 -954 183 -986 -5 -5 -65 -21 -133 -35 l-124 -25
            -67 31 c-37 17 -111 42 -165 57 -130 34 -352 38 -484 9 -684 -149 -1372 -897
            -1624 -1766 -75 -255 -113 -497 -123 -768 -6 -182 -16 -235 -28 -145 -41 332
            -156 581 -369 801 -243 252 -531 389 -950 454 -122 19 -184 22 -456 22 -179 1
            -382 -5 -470 -12 -334 -28 -592 -53 -744 -73 -120 -16 -160 -18 -166 -9 -4 6
            -10 44 -13 83 -13 168 -60 327 -152 512 -208 419 -560 690 -1065 819 -197 50
            -320 67 -545 73 -299 8 -480 -19 -684 -103 -162 -67 -367 -206 -465 -314 l-38
            -42 -126 60 c-407 192 -808 276 -1317 275 -516 -1 -965 -91 -1490 -298 -381
            -151 -778 -371 -1015 -562 -271 -219 -441 -486 -511 -803 -31 -139 -34 -409
            -6 -540 43 -200 130 -403 251 -583 l55 -82 -9 -210 c-39 -867 -38 -2121 1
            -2583 40 -487 188 -821 499 -1132 123 -123 235 -207 407 -307 58 -34 100 -64
            92 -67 -8 -2 -88 -9 -179 -16 -366 -25 -755 -72 -925 -112 -303 -70 -569 -212
            -766 -408 -141 -140 -232 -275 -303 -450 -90 -222 -116 -372 -161 -960 -35
            -442 -51 -603 -80 -800 -12 -79 -18 -98 -37 -110 -172 -114 -334 -300 -433
            -500 -94 -188 -128 -328 -155 -635 -36 -424 -65 -993 -57 -1115 26 -364 213
            -709 526 -971 384 -323 855 -508 1290 -509 374 0 707 130 955 373 78 76 206
            237 206 258 0 18 22 8 93 -40 197 -133 555 -273 845 -332 81 -16 156 -23 309
            -27 l202 -4 17 -27 c9 -14 47 -61 83 -105 289 -345 866 -644 1366 -707 140
            -17 352 -7 485 25 316 73 590 248 784 501 163 211 223 353 300 703 67 304 265
            1098 307 1229 l10 33 42 -21 c215 -110 528 -195 872 -236 213 -25 886 -25
            1200 0 1049 85 2010 188 2265 243 149 32 310 99 447 186 l63 40 73 -30 c276
            -114 529 -158 856 -149 203 6 288 19 431 67 385 129 692 440 819 825 58 178
            65 258 58 665 -10 700 19 1306 100 2075 45 433 35 615 -51 862 l-35 98 46 114
            c100 251 146 523 146 861 0 287 -31 463 -117 662 -19 43 -31 78 -27 78 3 0 47
            9 96 19 102 22 213 60 297 102 l57 29 39 -58 c63 -94 89 -143 245 -456 81
            -165 176 -347 209 -405 388 -673 922 -1139 1542 -1346 l140 -47 99 -93 c369
            -351 836 -615 1248 -704 280 -60 563 -48 819 35 134 44 524 236 703 347 482
            299 846 672 1056 1083 33 64 53 90 112 139 164 138 381 382 506 570 267 400
            393 801 393 1250 l0 163 52 84 c72 117 190 364 233 487 87 255 116 418 122
            697 7 314 -18 486 -114 774 l-54 165 30 100 c164 540 171 1100 17 1558 -208
            623 -835 1115 -1905 1496 -456 163 -979 294 -1533 386 -114 19 -238 37 -274
            41 -54 6 -67 11 -74 28 -5 12 -25 101 -45 199 -126 619 -536 1935 -796 2553
            -282 672 -701 1213 -1179 1526 -404 265 -929 389 -1425 337z m473 -30 c410
            -45 792 -204 1122 -467 205 -164 440 -427 612 -688 180 -271 285 -476 430
            -839 256 -639 638 -1901 753 -2485 15 -74 30 -138 34 -142 3 -4 98 -21 211
            -38 1114 -164 2137 -509 2765 -930 338 -227 581 -483 720 -758 60 -119 91
            -204 125 -346 51 -205 64 -327 64 -576 0 -307 -34 -532 -124 -811 l-37 -117
            24 -58 c105 -258 155 -523 156 -814 1 -426 -108 -813 -335 -1194 l-73 -121 -1
            -170 c-3 -336 -68 -625 -210 -924 -144 -303 -379 -612 -649 -853 -86 -76 -121
            -115 -140 -154 -160 -327 -458 -667 -819 -934 -267 -198 -697 -428 -948 -509
            -622 -199 -1361 45 -2029 669 l-106 99 -114 37 c-268 85 -503 209 -744 393
            -127 97 -398 365 -505 500 -186 237 -290 410 -521 871 -156 311 -279 527 -297
            518 -177 -91 -375 -158 -468 -158 -19 0 -34 -3 -34 -6 0 -4 18 -46 40 -95 93
            -208 124 -373 124 -674 -1 -338 -47 -612 -143 -840 -24 -55 -45 -107 -48 -116
            -2 -9 11 -59 31 -111 88 -235 100 -432 53 -873 -74 -700 -89 -981 -94 -1765
            -4 -749 -5 -775 -59 -945 -63 -197 -159 -353 -313 -506 -151 -151 -290 -239
            -481 -307 -360 -127 -872 -94 -1289 82 l-77 33 -50 -34 c-138 -94 -341 -177
            -504 -207 -376 -68 -1726 -205 -2433 -247 -263 -15 -817 -7 -997 15 -310 38
            -587 112 -804 215 -60 28 -111 49 -114 47 -14 -15 -240 -907 -321 -1269 -58
            -262 -84 -345 -146 -470 -190 -382 -519 -642 -935 -739 -125 -29 -364 -35
            -501 -14 -463 73 -941 314 -1244 627 -55 57 -116 128 -135 157 l-35 53 -100
            -6 c-199 -12 -442 25 -694 107 -254 82 -484 190 -611 288 -19 15 -40 30 -46
            33 -6 4 -33 -28 -64 -76 -31 -48 -98 -127 -164 -193 -159 -160 -309 -253 -510
            -319 -163 -52 -220 -60 -446 -59 -174 0 -221 3 -310 23 -317 68 -661 235 -922
            448 -108 89 -257 249 -321 344 -149 224 -227 469 -227 710 0 282 60 1149 91
            1300 66 334 253 633 508 815 l68 49 17 110 c30 206 45 360 81 817 19 251 42
            496 50 545 81 471 276 783 635 1015 311 202 617 270 1495 334 127 9 236 18
            243 20 8 2 -36 29 -96 59 -495 248 -828 648 -940 1130 -59 250 -71 451 -79
            1230 -5 575 5 1285 27 1733 l8 177 -63 95 c-116 174 -200 366 -240 550 -26
            119 -31 347 -11 471 43 262 165 510 342 698 277 295 852 618 1447 816 894 295
            1803 268 2516 -76 l144 -69 97 94 c157 150 302 237 509 306 156 52 287 70 509
            70 370 0 696 -72 997 -220 444 -219 752 -667 806 -1173 10 -99 15 -117 28
            -112 48 14 427 56 836 92 285 25 824 25 985 0 401 -63 674 -183 904 -399 229
            -213 372 -495 407 -802 l12 -101 37 3 37 4 6 201 c20 684 264 1325 693 1826
            220 256 474 463 710 577 330 158 648 175 944 49 l85 -36 105 21 c146 30 179
            40 185 61 14 43 -28 334 -92 629 -78 365 -105 439 -300 820 -340 663 -381 749
            -508 1065 -121 300 -231 666 -272 903 -23 136 -23 442 0 572 48 264 146 494
            299 702 81 112 272 298 388 380 239 169 553 291 856 331 132 18 389 21 522 6z"
    />
            <path
      d="M15925 19509 c-493 -77 -856 -377 -955 -791 -45 -187 -37 -357 31
            -618 110 -429 249 -764 584 -1410 286 -553 342 -692 420 -1039 97 -435 128
            -641 127 -851 -1 -167 -18 -257 -73 -369 -75 -152 -214 -258 -425 -324 -121
            -38 -385 -88 -501 -94 -113 -6 -127 -3 -233 58 -124 71 -204 83 -335 49 -149
            -38 -297 -134 -478 -310 -263 -254 -443 -541 -556 -885 -92 -279 -127 -533
            -118 -840 9 -275 43 -470 127 -725 144 -439 405 -836 736 -1120 367 -315 661
            -439 929 -389 83 15 150 48 254 122 108 78 181 108 277 114 130 10 251 -47
            383 -177 164 -162 264 -320 497 -784 97 -191 198 -387 226 -435 213 -363 500
            -662 812 -845 124 -73 228 -117 417 -176 87 -26 168 -54 180 -60 13 -7 87 -74
            164 -149 511 -498 1042 -707 1438 -564 101 36 290 127 432 208 471 267 802
            602 955 967 38 91 40 94 132 167 409 330 675 737 742 1140 27 163 18 434 -20
            562 -2 8 17 42 42 75 389 495 503 1045 328 1573 -19 57 -64 162 -101 233 l-66
            128 43 102 c187 449 234 858 145 1254 -84 374 -387 669 -976 953 -569 274
            -1406 508 -2187 611 -325 43 -351 48 -397 70 -25 12 -66 42 -90 67 -96 95
            -149 232 -215 548 -129 625 -476 1769 -731 2408 -307 771 -749 1287 -1259
            1472 -158 57 -270 76 -465 80 -99 2 -207 0 -240 -6z m330 -269 c201 -23 434
            -115 590 -232 236 -177 480 -495 661 -863 83 -167 158 -385 424 -1230 277
            -877 371 -1188 410 -1355 75 -322 163 -796 229 -1239 22 -143 36 -210 47 -223
            25 -27 80 -24 99 5 35 54 86 238 110 397 22 148 18 140 78 140 68 0 479 -60
            727 -105 761 -140 1338 -316 1809 -550 274 -137 477 -276 600 -410 107 -117
            147 -195 183 -356 20 -90 23 -131 23 -309 0 -175 -4 -222 -23 -320 -170 -838
            -894 -1612 -1672 -1785 -98 -22 -397 -31 -527 -16 -338 39 -659 156 -903 328
            -123 87 -336 301 -422 423 -120 170 -228 402 -277 598 -50 195 -64 430 -36
            613 37 247 124 343 310 343 183 -1 436 -89 650 -228 332 -216 559 -522 645
            -871 12 -49 29 -98 38 -107 20 -23 67 -23 90 0 41 41 70 230 53 340 -16 103
            -43 175 -132 353 -98 197 -122 267 -117 336 8 99 86 172 292 274 210 104 353
            129 771 135 268 5 281 6 298 25 24 30 21 64 -8 88 -28 21 -179 59 -350 87
            -165 27 -455 25 -593 -5 -162 -34 -339 -112 -529 -232 l-93 -58 0 33 c0 87 54
            329 95 427 14 32 25 63 25 69 0 20 -49 60 -72 60 -32 0 -124 -100 -177 -195
            -40 -68 -58 -113 -128 -304 -26 -71 -45 -85 -112 -77 -30 4 -153 32 -271 62
            -184 48 -232 56 -335 61 -183 8 -308 -30 -417 -126 -128 -114 -197 -297 -219
            -587 -16 -215 19 -499 86 -694 24 -69 24 -76 9 -85 -115 -69 -225 -187 -279
            -300 -55 -115 -69 -182 -69 -340 -1 -154 13 -240 65 -398 36 -108 156 -359
            227 -471 l49 -80 -51 -42 c-191 -155 -267 -417 -206 -714 21 -102 68 -246 102
            -314 l19 -38 -23 -16 c-50 -33 -145 -140 -176 -199 -41 -78 -72 -198 -72 -278
            0 -88 23 -209 82 -438 28 -108 48 -200 44 -204 -9 -10 -146 59 -241 122 -404
            265 -778 886 -913 1515 -40 183 -53 306 -59 520 -6 229 2 310 37 352 18 22 19
            22 54 6 19 -10 74 -47 121 -83 103 -79 214 -136 395 -203 250 -93 288 -99 312
            -47 21 46 4 70 -84 121 -216 123 -394 261 -558 431 -146 150 -231 270 -323
            453 -117 231 -183 461 -224 775 -29 224 -25 814 10 1320 69 1011 63 1509 -24
            2035 -78 474 -205 799 -574 1475 -295 541 -430 847 -540 1231 -65 227 -78 307
            -73 444 4 91 11 132 33 199 80 238 284 415 570 496 146 41 278 52 430 35z
            m-102 -5306 c18 -57 19 -403 3 -649 -60 -897 -40 -1335 78 -1765 52 -190 149
            -419 239 -564 20 -32 23 -45 16 -70 -16 -53 -48 -236 -64 -354 -23 -184 -79
            -258 -174 -232 -21 5 -99 41 -173 80 -175 91 -237 113 -415 149 -309 63 -542
            188 -762 410 -285 286 -493 636 -580 976 -22 86 -30 102 -53 112 -32 16 -72 4
            -88 -28 -15 -27 1 -207 31 -354 94 -461 379 -905 774 -1205 120 -92 205 -168
            205 -186 0 -41 -141 -49 -250 -15 -131 41 -407 228 -593 401 -307 287 -534
            687 -615 1085 -103 498 -10 1052 250 1507 39 67 90 150 114 184 112 157 344
            328 513 378 68 20 101 21 101 2 0 -29 -77 -163 -162 -281 -109 -152 -166 -253
            -219 -385 -55 -138 -94 -275 -124 -438 -34 -180 -35 -220 -6 -244 63 -50 89
            -18 226 282 184 403 296 582 466 745 194 185 360 262 740 340 222 46 367 88
            449 131 54 28 61 26 73 -12z m5975 -2470 c65 -79 106 -267 105 -484 -1 -172
            -18 -264 -73 -392 -201 -467 -637 -876 -1295 -1214 -220 -113 -361 -172 -451
            -189 -346 -67 -812 113 -1299 501 -141 112 -416 387 -529 529 -308 385 -478
            762 -464 1029 9 169 43 189 190 113 85 -44 170 -104 436 -309 361 -278 600
            -399 952 -482 194 -46 320 -60 545 -60 181 -1 226 2 325 22 496 101 944 380
            1344 839 54 62 105 117 114 123 35 20 70 11 100 -26z m-3695 -1525 c12 -7 69
            -57 127 -113 517 -496 981 -786 1430 -893 144 -34 350 -42 475 -19 200 38 614
            239 955 463 172 114 230 143 287 143 38 0 44 -4 59 -32 37 -71 12 -257 -56
            -416 -132 -312 -481 -647 -947 -911 -115 -65 -402 -204 -466 -225 -176 -59
            -385 -38 -639 64 -467 187 -1014 680 -1291 1165 -130 227 -160 530 -71 707 36
            72 83 95 137 67z m-166 -1201 c31 -18 94 -73 142 -123 341 -354 487 -484 706
            -630 427 -284 826 -401 1156 -339 46 8 138 37 204 63 147 59 221 84 236 79 14
            -5 -101 -120 -201 -201 -185 -150 -597 -384 -767 -437 -120 -37 -293 -23 -451
            36 -557 210 -1186 933 -1219 1401 -6 89 12 163 45 183 28 17 90 4 149 -32z"
    />
            <path
      d="M7589 13592 c-46 -8 -94 -32 -116 -61 -61 -77 -93 -219 -96 -425 -2
            -182 10 -228 81 -307 105 -117 357 -183 609 -160 105 10 109 11 139 44 67 72
            104 244 104 472 -1 92 -6 153 -14 178 -33 92 -101 155 -213 197 -124 46 -383
            79 -494 62z"
    />
            <path
      d="M4895 13460 c-291 -32 -593 -112 -875 -232 -269 -114 -602 -308 -683
            -397 -33 -36 -37 -47 -37 -92 0 -109 122 -269 307 -401 l46 -33 -7 -100 c-38
            -600 -56 -1263 -56 -2030 0 -908 16 -1179 77 -1304 70 -145 272 -277 520 -340
            180 -46 267 -55 533 -55 282 0 404 13 607 65 520 133 967 483 1192 934 123
            246 170 430 178 700 6 204 -3 287 -46 413 -40 116 -84 185 -176 278 -187 189
            -461 287 -899 320 l-78 6 43 25 c275 158 375 229 504 358 214 215 349 472 391
            747 21 137 14 342 -16 448 -96 338 -436 583 -930 671 -131 24 -458 34 -595 19z
            m385 -739 c126 -39 198 -108 243 -229 18 -48 21 -80 22 -202 0 -122 -4 -158
            -23 -225 -87 -301 -317 -551 -616 -666 -64 -25 -375 -109 -403 -109 -9 0 4
            296 22 515 26 315 17 478 -32 567 -32 59 -91 113 -142 129 -20 6 -40 15 -44
            19 -18 16 310 151 461 189 176 45 390 50 512 12z m98 -2027 c207 -42 354 -179
            393 -362 16 -78 6 -257 -20 -357 -27 -102 -105 -261 -169 -345 -144 -190 -348
            -318 -582 -366 -153 -31 -411 -6 -480 46 l-25 19 -3 638 -3 639 114 27 c107
            25 308 62 387 70 101 11 316 6 388 -9z"
    />
            <path
      d="M10540 12190 c-750 -63 -922 -89 -1032 -159 -90 -57 -99 -101 -143
            -668 -39 -497 -47 -582 -76 -793 -49 -354 -95 -532 -190 -730 -55 -115 -137
            -260 -147 -260 -33 0 -205 -32 -225 -41 -14 -6 -32 -26 -40 -43 -18 -39 -43
            -332 -67 -771 -20 -390 -23 -374 64 -451 113 -103 271 -189 410 -224 118 -30
            178 -25 220 17 30 30 31 37 56 368 19 257 47 525 56 534 2 2 327 32 721 67
            395 34 743 65 774 68 l57 5 0 -132 c1 -178 33 -401 67 -467 34 -66 134 -124
            324 -190 234 -80 362 -79 390 2 8 21 16 245 23 653 15 765 15 742 -11 792 -31
            62 -52 67 -235 51 -87 -8 -159 -12 -160 -9 -3 6 7 375 24 876 13 378 37 858
            50 1020 6 66 13 172 17 235 6 115 6 115 -22 148 -35 42 -66 57 -167 83 -73 19
            -116 22 -358 24 -151 2 -322 -1 -380 -5z m92 -760 c-17 -312 -24 -499 -38
            -1045 -9 -352 -19 -643 -23 -646 -7 -7 -851 -82 -857 -76 -2 2 9 28 26 58 202
            374 304 830 365 1632 7 86 7 87 33 88 15 0 115 8 222 19 107 10 213 17 235 17
            l39 -2 -2 -45z"
    />
            <path
      d="M7500 11946 c-66 -18 -118 -45 -140 -73 -22 -29 -19 -8 -65 -468 -74
            -757 -98 -1166 -99 -1675 -1 -399 -1 -406 22 -469 63 -173 212 -317 407 -392
            120 -47 203 -61 333 -57 168 5 154 -34 146 427 -11 624 27 1383 107 2129 23
            219 24 294 5 331 -52 99 -266 207 -490 246 -104 18 -164 18 -226 1z"
    />
            <path
      d="M13425 8826 c-43 -19 -90 -76 -113 -138 -36 -98 -46 -168 -47 -343 0
            -166 1 -171 28 -227 49 -100 143 -163 312 -209 68 -19 107 -22 255 -23 198 0
            221 6 258 73 77 139 110 521 56 642 -55 120 -169 184 -398 224 -110 19 -309
            19 -351 1z"
    />
            <path
      d="M13348 7181 c-104 -41 -122 -68 -133 -201 -3 -41 -19 -203 -35 -360
            -29 -282 -57 -623 -82 -1000 -7 -109 -13 -387 -13 -630 0 -421 1 -437 21 -491
            83 -216 312 -387 579 -434 98 -17 181 -19 239 -5 76 17 71 -15 68 518 -5 689
            27 1289 108 2065 26 246 26 264 -6 313 -60 93 -242 186 -445 229 -99 21 -242
            19 -301 -4z"
    />
            <path
      d="M11622 7001 c-18 -12 -39 -36 -47 -54 -12 -30 -31 -234 -55 -602 -25
            -380 -53 -1423 -43 -1612 5 -93 3 -123 -6 -123 -7 0 -123 -11 -259 -25 -136
            -14 -275 -27 -308 -31 l-62 -5 -7 181 c-11 273 18 1336 47 1760 18 251 17 257
            -25 296 -40 37 -148 75 -272 95 -104 17 -388 17 -437 1 -69 -24 -76 -51 -102
            -387 -14 -181 -20 -288 -42 -715 -4 -74 -10 -394 -13 -710 l-6 -575 -190 -11
            c-195 -12 -323 -17 -432 -15 l-63 1 0 328 c0 451 29 1367 56 1748 l6 90 -31
            36 c-19 22 -51 43 -79 52 -66 23 -415 67 -543 69 -116 2 -134 -5 -164 -63 -54
            -107 -113 -1352 -102 -2189 6 -475 10 -507 67 -567 63 -64 247 -145 412 -179
            206 -44 535 -61 862 -46 552 26 1718 135 2256 211 180 26 198 32 252 80 67 59
            71 81 57 333 -20 362 -3 1301 37 2042 23 430 23 457 -2 492 -11 15 -36 36 -55
            45 -53 25 -315 59 -504 65 -160 4 -172 3 -203 -16z"
    />
            <path
      d="M7390 6729 c-99 -41 -235 -274 -394 -674 -180 -454 -355 -987 -530
            -1615 l-54 -195 -32 70 c-234 514 -430 1214 -550 1963 -39 242 -36 229 -70
            247 -62 32 -320 12 -520 -41 -170 -45 -241 -88 -288 -178 -26 -48 -27 -58 -26
            -186 0 -134 1 -136 72 -405 217 -822 401 -1333 681 -1893 94 -188 142 -255
            198 -279 39 -16 138 -17 199 -2 25 6 47 10 49 7 2 -2 -43 -152 -101 -333 -58
            -182 -130 -411 -160 -510 -60 -196 -162 -602 -171 -676 -14 -119 25 -196 149
            -289 167 -126 468 -237 569 -210 45 12 94 51 115 91 8 16 37 129 65 251 303
            1344 825 3053 1239 4063 97 235 142 379 144 456 1 57 -2 70 -27 102 -53 70
            -220 171 -355 216 -77 25 -169 34 -202 20z"
    />
            <path
      d="M3685 6313 c-265 -12 -731 -53 -947 -83 -169 -23 -253 -47 -319 -88
            -88 -56 -99 -108 -144 -687 -71 -918 -123 -1211 -269 -1517 -25 -51 -65 -127
            -90 -169 l-45 -76 -115 -18 c-127 -19 -149 -31 -165 -93 -19 -69 -71 -837 -71
            -1040 0 -87 21 -119 137 -206 155 -117 325 -188 453 -189 90 -2 125 16 140 72
            6 20 19 155 30 301 11 146 28 331 37 413 15 134 19 148 37 152 12 2 341 31
            731 65 391 33 731 63 758 66 l47 6 0 -129 c1 -220 34 -417 83 -490 39 -58 137
            -113 296 -167 244 -83 365 -86 400 -9 10 21 15 166 22 603 5 316 10 627 12
            690 2 98 -1 121 -18 155 -32 64 -52 69 -231 54 -85 -7 -157 -10 -160 -6 -21
            21 44 1661 81 2055 13 138 13 156 -1 192 -32 81 -160 124 -413 140 -86 5 -169
            9 -186 8 -16 -1 -57 -3 -90 -5z m-139 -775 c-11 -93 -25 -462 -37 -918 -6
            -245 -14 -519 -17 -610 l-7 -165 -415 -37 c-228 -20 -423 -37 -432 -37 -13 -1
            -2 29 52 142 175 366 263 758 316 1420 l18 217 25 1 c14 0 109 9 211 18 102
            10 209 19 238 20 l53 1 -5 -52z"
    />
      </g>
</svg>
